<svg width="23" height="23" viewBox="0 0 23 23" fill="none" xmlns="http://www.w3.org/2000/svg">
<path d="M11.4169 22.8764C17.6479 22.8764 22.6992 17.8179 22.6992 11.5779C22.6992 5.3379 17.6479 0.279388 11.4169 0.279388C5.18583 0.279388 0.134583 5.3379 0.134583 11.5779C0.134583 17.8179 5.18583 22.8764 11.4169 22.8764Z" fill="#F2F2F2"/>
<path d="M4.90485 12.9947C4.90485 12.115 5.61795 11.4019 6.49761 11.4019H10.8777V12.9947H4.90485V12.9947Z" fill="#B3E0E6"/>
<path d="M9.28494 12.9947L9.28494 8.21637L10.8777 8.21637L10.8777 12.9947L9.28494 12.9947Z" fill="#B3E0E6"/>
<path d="M18 11.8001C18 12.6797 17.2869 13.3929 16.4072 13.3929L12.0271 13.3929L12.0271 11.8001L18 11.8001V11.8001Z" fill="#B3E0E6"/>
<path d="M4.90485 14.9856H10.8777V16.5784H6.49761C5.61795 16.5784 4.90485 15.8653 4.90485 14.9856V14.9856Z" fill="#B3E0E6"/>
<path d="M18 9.80914L12.0271 9.80914L12.0271 8.21637L16.4072 8.21637C17.2869 8.21637 18 8.92948 18 9.80914V9.80914Z" fill="#B3E0E6"/>
<path d="M13.6198 11.8001L13.6198 16.5784L12.027 16.5784L12.027 11.8001L13.6198 11.8001Z" fill="#B3E0E6"/>
<rect x="4.90485" y="15.782" width="3.58372" height="1.59276" rx="0.796382" transform="rotate(-90 4.90485 15.782)" fill="#B3E0E6"/>
<rect x="18" y="9.01275" width="3.58372" height="1.59276" rx="0.796382" transform="rotate(90 18 9.01275)" fill="#B3E0E6"/>
</svg>
