<svg width="36" height="50" viewBox="0 0 36 50" fill="none" xmlns="http://www.w3.org/2000/svg">
<path d="M32.8024 8.5622C29.7679 3.32548 24.3781 0.126162 18.3844 0.00389595C18.1286 -0.00137749 17.871 -0.00137749 17.6151 0.00389595C11.6215 0.126162 6.23168 3.32548 3.19711 8.5622C0.0953524 13.9149 0.0104894 20.3446 2.97006 25.7617L15.3688 48.4558C15.3744 48.4658 15.3799 48.4759 15.3857 48.4858C15.9312 49.434 16.9084 50 17.9999 50C19.0913 50 20.0686 49.4339 20.614 48.4858C20.6198 48.4759 20.6253 48.4658 20.6309 48.4558L33.0296 25.7617C35.989 20.3446 35.9041 13.9149 32.8024 8.5622ZM17.9997 22.6562C14.1227 22.6562 10.9685 19.502 10.9685 15.625C10.9685 11.7479 14.1227 8.59374 17.9997 8.59374C21.8768 8.59374 25.031 11.7479 25.031 15.625C25.031 19.502 21.8769 22.6562 17.9997 22.6562Z" fill="white"/>
</svg>
