<svg width="50" height="50" viewBox="0 0 50 50" fill="none" xmlns="http://www.w3.org/2000/svg">
<g clip-path="url(#clip0_254_3536)">
<path d="M49.5543 36.1815C49.42 35.9565 48.5887 34.1501 44.5884 30.4373C40.4006 26.5495 40.9631 27.1808 46.0072 20.4585C49.0793 16.3644 50.3075 13.8642 49.9231 12.7954C49.5575 11.7766 47.2979 12.0453 47.2979 12.0453L39.7849 12.0891C39.7849 12.0891 39.2286 12.0141 38.8129 12.261C38.4098 12.5047 38.1504 13.0673 38.1504 13.0673C38.1504 13.0673 36.9597 16.2363 35.3721 18.9302C32.0249 24.615 30.6842 24.915 30.1373 24.5619C28.8653 23.74 29.1841 21.2554 29.1841 19.4928C29.1841 13.983 30.0185 11.6859 27.5559 11.0921C26.737 10.8952 26.137 10.764 24.0462 10.7421C21.3648 10.714 19.0927 10.7515 17.8083 11.3797C16.9519 11.7984 16.2925 12.7329 16.6957 12.786C17.1926 12.8516 18.3177 13.0892 18.9146 13.9017C19.6865 14.9487 19.6584 17.3051 19.6584 17.3051C19.6584 17.3051 20.1022 23.79 18.6239 24.5963C17.6082 25.1494 16.2175 24.0212 13.2329 18.8615C11.7047 16.2206 10.5484 13.2986 10.5484 13.2986C10.5484 13.2986 10.3265 12.7548 9.92955 12.4641C9.44827 12.111 8.77322 11.9985 8.77322 11.9985L1.62894 12.0422C1.62894 12.0422 0.556989 12.0735 0.16321 12.5391C-0.186816 12.9548 0.135083 13.8111 0.135083 13.8111C0.135083 13.8111 5.72925 26.8964 12.061 33.4938C17.8708 39.5411 24.465 39.1442 24.465 39.1442H27.4527C27.4527 39.1442 28.3559 39.0442 28.8153 38.5473C29.2404 38.091 29.2247 37.2347 29.2247 37.2347C29.2247 37.2347 29.1653 33.225 31.028 32.6344C32.8625 32.0531 35.2189 36.5096 37.716 38.2254C39.6036 39.5224 41.0381 39.238 41.0381 39.238L47.7167 39.1442C47.7167 39.1442 51.2107 38.9286 49.5543 36.1815Z" fill="white"/>
</g>
<defs>
<clipPath id="clip0_254_3536">
<rect width="50" height="50" fill="white"/>
</clipPath>
</defs>
</svg>
