<svg width="26" height="22" viewBox="0 0 26 22" fill="none" xmlns="http://www.w3.org/2000/svg">
<path d="M10.2053 21.6443C10.0058 21.6443 9.80823 21.605 9.6239 21.5286C9.43958 21.4522 9.27214 21.3403 9.1311 21.1991L0.926514 12.9946C0.641608 12.7097 0.481567 12.3232 0.481567 11.9203C0.481567 11.5174 0.641608 11.131 0.926514 10.8461C1.21142 10.5612 1.59788 10.4011 2.00079 10.4011C2.40371 10.4011 2.79011 10.5612 3.07501 10.8461L10.0273 17.7984L22.3505 0.993931C22.5888 0.668965 22.9464 0.451992 23.3447 0.390721C23.743 0.329449 24.1494 0.428896 24.4744 0.66721C24.7993 0.905524 25.0162 1.26317 25.0775 1.66147C25.1388 2.05977 25.0393 2.46611 24.801 2.79108L11.4307 21.0235C11.3011 21.2001 11.1347 21.3467 10.9432 21.4531C10.7517 21.5595 10.5395 21.6233 10.321 21.6401C10.2825 21.6431 10.2436 21.6443 10.2053 21.6443Z" fill="#0098AC"/>
</svg>
