<svg width="0" height="0" class="hidden">

  <symbol xmlns="http://www.w3.org/2000/svg" viewBox="0 0 20 20" id="instagram-icon">
    <g clip-path="url(#clip0_37_981)">
      <path d="M14.5862 0H5.41381C2.42858 0 0 2.42858 0 5.41381V14.5863C0 17.5714 2.42858 20 5.41381 20H14.5863C17.5714 20 20 17.5714 20 14.5863V5.41381C20 2.42858 17.5714 0 14.5862 0V0ZM18.8275 14.5863C18.8275 16.9249 16.9249 18.8275 14.5862 18.8275H5.41381C3.0751 18.8275 1.17248 16.9249 1.17248 14.5863V5.41381C1.17248 3.0751 3.0751 1.17248 5.41381 1.17248H14.5863C16.9249 1.17248 18.8275 3.0751 18.8275 5.41381V14.5863Z"></path>
      <path d="M9.99996 4.53139C6.98452 4.53139 4.53137 6.98454 4.53137 9.99997C4.53137 13.0154 6.98452 15.4686 9.99996 15.4686C13.0154 15.4686 15.4685 13.0154 15.4685 9.99997C15.4685 6.98454 13.0154 4.53139 9.99996 4.53139ZM9.99996 14.2961C7.63119 14.2961 5.70386 12.3689 5.70386 9.99997C5.70386 7.6312 7.63119 5.70387 9.99996 5.70387C12.3689 5.70387 14.2961 7.6312 14.2961 9.99997C14.2961 12.3689 12.3689 14.2961 9.99996 14.2961Z"></path>
      <path d="M15.5993 2.58926C14.7082 2.58926 13.9834 3.31421 13.9834 4.20517C13.9834 5.09628 14.7082 5.82122 15.5993 5.82122C16.4904 5.82122 17.2154 5.09628 17.2154 4.20517C17.2154 3.31405 16.4904 2.58926 15.5993 2.58926ZM15.5993 4.64859C15.3549 4.64859 15.1559 4.44961 15.1559 4.20517C15.1559 3.96057 15.3549 3.76175 15.5993 3.76175C15.8439 3.76175 16.0429 3.96057 16.0429 4.20517C16.0429 4.44961 15.8439 4.64859 15.5993 4.64859Z"></path>
    </g>
    <defs>
      <clipPath id="clip0_37_981">
        <rect width="20" height="20" fill="white"></rect>
      </clipPath>
    </defs>
  </symbol>

  <symbol xmlns="http://www.w3.org/2000/svg" viewBox="0 0 20 20" id="telegram-icon">
    <g clip-path="url(#clip0_37_985)">
      <path d="M19.6912 1.98669C19.4469 1.68793 19.081 1.52344 18.6608 1.52344C18.4323 1.52344 18.1903 1.5715 17.9416 1.66656L1.01199 8.12912C0.113557 8.47198 -0.00744541 8.98651 0.000336565 9.2627C0.00811854 9.53888 0.158112 10.0458 1.07456 10.3374C1.08005 10.3391 1.08554 10.3407 1.09103 10.3423L4.60269 11.3472L6.5018 16.7778C6.76074 17.5182 7.34195 17.9781 8.01883 17.9781C8.44562 17.9781 8.86539 17.7992 9.23282 17.4611L11.4049 15.4611L14.5554 17.9979C14.5557 17.9982 14.5562 17.9984 14.5565 17.9987L14.5864 18.0228C14.5891 18.0249 14.592 18.0272 14.5948 18.0293C14.9449 18.3009 15.3272 18.4444 15.7006 18.4445H15.7007C16.4302 18.4445 17.0111 17.9045 17.1804 17.0689L19.9543 3.37204C20.0656 2.82227 19.9723 2.33032 19.6912 1.98669ZM5.77747 11.1563L12.5525 7.69516L8.33392 12.1777C8.2648 12.2511 8.21582 12.341 8.19171 12.4388L7.37827 15.7338L5.77747 11.1563ZM8.4389 16.599C8.41083 16.6248 8.3826 16.6478 8.35437 16.669L9.10907 13.6124L10.4819 14.7179L8.4389 16.599ZM18.8057 3.13934L16.0318 16.8364C16.0051 16.9675 15.9198 17.2725 15.7006 17.2725C15.5922 17.2725 15.4561 17.2134 15.3168 17.1062L11.7469 14.2317C11.7464 14.2313 11.7458 14.2308 11.7452 14.2305L9.621 12.52L15.7216 6.0376C15.9169 5.83008 15.9346 5.51224 15.7636 5.28427C15.5924 5.0563 15.2822 4.98459 15.0284 5.11429L4.99454 10.2403L1.43512 9.22195L18.3596 2.76138C18.5025 2.70676 18.6023 2.69531 18.6608 2.69531C18.6966 2.69531 18.7604 2.69958 18.7841 2.72873C18.8152 2.76672 18.8549 2.89627 18.8057 3.13934Z"></path>
    </g>
    <defs>
      <clipPath id="clip0_37_985">
        <rect width="20" height="20" fill="white"></rect>
      </clipPath>
    </defs>
  </symbol>

  <symbol xmlns="http://www.w3.org/2000/svg" enable-background="new 0 0 24 24" viewBox="0 0 24 24" id="twitter-icon">
    <path d="M22.5,3.5888672c0.0002441-0.2761841-0.2234497-0.5002441-0.4996338-0.5004883c-0.0898438-0.000061-0.1779785,0.0240479-0.255249,0.0698242c-0.7038574,0.4194946-1.4684448,0.7275391-2.2666016,0.9130859c-0.8716431-0.8326416-2.0318604-1.2953491-3.2373047-1.2910156c-2.6089478,0.0032349-4.7229004,2.1176758-4.7255859,4.7265625c0,0.1347656,0.0058594,0.2714844,0.0185547,0.4091797C8.5112915,7.5945435,5.7377319,6.09198,3.8173828,3.7353516c-0.175354-0.2139282-0.4909668-0.2451782-0.704895-0.0698242c-0.0467529,0.0383301-0.0861816,0.0848389-0.116394,0.137207C2.581604,4.5263672,2.3637695,5.3458252,2.3642578,6.1797485C2.362915,7.0950928,2.6275635,7.9910889,3.1259766,8.7587891c-0.0195312-0.0107422-0.039978-0.0214844-0.0595703-0.0332031c-0.1596069-0.0778809-0.3484497-0.065979-0.4970703,0.03125c-0.1546631,0.1004028-0.2477417,0.272583-0.2470703,0.4570312C2.3181152,9.3320923,2.3253174,9.4505005,2.34375,9.5673218c0.0957642,1.3353882,0.7573853,2.5662842,1.8183594,3.3828735c-0.0925903,0.0269165-0.1751709,0.0805664-0.2373047,0.1542969c-0.1132812,0.1314087-0.1502686,0.3121948-0.0976562,0.4775391c0.468811,1.461731,1.62146,2.6026611,3.0878296,3.0566406c-1.4753418,0.8259277-3.1745605,1.1630249-4.8535156,0.9628906c-0.274231-0.0336304-0.5238037,0.161438-0.5574341,0.4356689c-0.0233154,0.1904297,0.06427,0.3773804,0.2254639,0.4813232C3.7386475,19.812439,6.0780029,20.5003662,8.4677734,20.5c5.5748291,0.0617676,10.4938965-3.6341553,11.9863281-9.0058594c0.3389282-1.1375122,0.5119019-2.3179321,0.5136719-3.5048828c0-0.1201172,0-0.2451172-0.0029297-0.3720703C22.0166626,6.5477295,22.5733032,5.0870972,22.5,3.5888672z M20.0761719,7.1220703c-0.0820923,0.0969849-0.1240234,0.2217407-0.1171875,0.3486328c0.0087891,0.1767578,0.0087891,0.3525391,0.0087891,0.5185547c-0.0020142,1.0913086-0.1611938,2.1766968-0.4726562,3.2226562C18.1668701,16.1845703,13.6137085,19.6067505,8.4677734,19.5c-1.5258789,0.0005493-3.036377-0.3045654-4.4423828-0.8974609c1.6526489-0.1833496,3.220459-0.8276367,4.5244141-1.859375c0.2172241-0.1707764,0.2548828-0.4852905,0.0841064-0.7025146C8.5411377,15.9225464,8.4001465,15.852417,8.25,15.8496094c-1.3014526-0.0209351-2.4966431-0.7225342-3.1494141-1.8486328c0.4240723,0.0012817,0.8461914-0.057251,1.2539062-0.1738281c0.2652588-0.0761719,0.4185181-0.3529053,0.3423462-0.6181641C6.6450806,13.0286255,6.4966431,12.8924561,6.3125,12.8564453c-1.463562-0.2926636-2.6086426-1.4346924-2.9052734-2.8974609c0.4245605,0.1375122,0.8664551,0.2141113,1.3125,0.2275391c0.2264404,0.0168457,0.4329224-0.1294556,0.4921875-0.3486328C5.2793579,9.625,5.1976929,9.3931885,5.0117188,9.2695312C3.9785156,8.581604,3.3596802,7.4209595,3.3642578,6.1796875C3.3639526,5.7672119,3.4312134,5.3574829,3.5634766,4.9667969C5.7807617,7.361084,8.84552,8.7946777,12.1044922,8.9619141c0.1580811,0.0167236,0.3132935-0.0512085,0.4082031-0.1787109c0.1005859-0.1207275,0.138855-0.2814941,0.1035156-0.4345703c-0.0661621-0.2757568-0.0999756-0.5582275-0.1005859-0.8417969c0.0019531-2.0569458,1.6686401-3.7240601,3.7255859-3.7265625c1.0283203-0.0029297,2.0109863,0.4244995,2.710022,1.1787109c0.1178589,0.1260986,0.2926025,0.182251,0.4619141,0.1484375c0.7096558-0.1395874,1.3995972-0.3652344,2.0546265-0.671875C21.2976074,5.4550171,20.81073,6.3949585,20.0761719,7.1220703z"></path>
  </symbol>

  <symbol xmlns="http://www.w3.org/2000/svg" viewBox="0 0 24 24" id="rate-bitcoin-icon">
    <path fill="#F90" fill-rule="evenodd" d="M23.6408156,14.9046858 C22.0378949,21.3339956 15.5260763,25.2467873 9.09601649,23.6434916 C2.66858193,22.0405708 -1.24420981,15.5283772 0.359460996,9.09944253 C1.96163164,2.66938268 8.47345019,-1.24378409 14.9016348,0.359136628 C21.3313196,1.96205735 25.2437363,8.47500102 23.6408156,14.9046858 L23.6408156,14.9046858 Z M17.2913894,10.2916945 C17.5302898,8.69477443 16.3144103,7.83630799 14.6518582,7.263622 L15.1911657,5.1003916 L13.8744004,4.77223165 L13.3493445,6.87845598 C13.0031826,6.79219679 12.6476448,6.71081312 12.2943571,6.63017953 L12.8231635,4.51007873 L11.5071483,4.18191878 L10.9674658,6.3443991 C10.6809353,6.27914215 10.3996553,6.21463528 10.1266263,6.14675305 L10.1281264,6.14000233 L8.31218301,5.68657903 L7.9618957,7.09297883 C7.9618957,7.09297883 8.93887476,7.31687767 8.91824756,7.33075415 C9.45155436,7.46389333 9.54793963,7.81680592 9.53181291,8.09658572 L8.91749748,10.5609732 C8.9542514,10.5703492 9.00188147,10.5838506 9.05438706,10.6048529 C9.01050739,10.5939767 8.96362739,10.5819754 8.91524724,10.5703492 L8.05415553,14.0225919 C7.98889858,14.1846091 7.82350596,14.427635 7.45071626,14.3353752 C7.46384266,14.3545022 6.49361432,14.0964747 6.49361432,14.0964747 L5.8399197,15.6037603 L7.5534772,16.0309308 C7.87226116,16.1108143 8.18466943,16.1944482 8.49220218,16.2732066 L7.94726915,18.4611896 L9.26253423,18.7893496 L9.80221671,16.624619 C10.161505,16.7221294 10.5102921,16.812139 10.8515785,16.896898 L10.3137712,19.0515025 L11.6305364,19.3796624 L12.1754695,17.1958048 C14.4208336,17.6207251 16.1092634,17.4493318 16.8199641,15.4184905 C17.3926501,13.7833164 16.7914611,12.8400909 15.6100853,12.2250254 C16.4704269,12.0266293 17.1184959,11.460694 17.2913894,10.2916945 L17.2913894,10.2916945 Z M14.2828189,14.5105188 C13.8759006,16.145693 11.1227324,15.2617238 10.2301373,15.0400752 L10.9532143,12.1413915 C11.8458094,12.3641652 14.7081142,12.8052122 14.2828189,14.5105188 L14.2828189,14.5105188 Z M14.6901123,10.268067 C14.3188228,11.7554754 12.0273287,10.9997699 11.2839995,10.8145002 L11.9395694,8.18547018 C12.6828985,8.37073991 15.0767785,8.71652674 14.6901123,10.268067 L14.6901123,10.268067 Z"></path>
  </symbol>

  <symbol xmlns="http://www.w3.org/2000/svg" viewBox="0 0 32 32" id="rate-dogecoin-icon">
    <g fill="none" fill-rule="evenodd">
      <circle cx="16" cy="16" r="16" fill="#C3A634"></circle>
      <path fill="#FFF" d="M13.248 14.61h4.314v2.286h-4.314v4.818h2.721c1.077 0 1.958-.145 2.644-.437.686-.291 1.224-.694 1.615-1.21a4.4 4.4 0 00.796-1.815 11.4 11.4 0 00.21-2.252 11.4 11.4 0 00-.21-2.252 4.396 4.396 0 00-.796-1.815c-.391-.516-.93-.919-1.615-1.21-.686-.292-1.567-.437-2.644-.437h-2.721v4.325zm-2.766 2.286H9v-2.285h1.482V8h6.549c1.21 0 2.257.21 3.142.627.885.419 1.607.99 2.168 1.715.56.724.977 1.572 1.25 2.543.273.971.409 2.01.409 3.115a11.47 11.47 0 01-.41 3.115c-.272.97-.689 1.819-1.25 2.543-.56.725-1.282 1.296-2.167 1.715-.885.418-1.933.627-3.142.627h-6.549v-7.104z"></path>
    </g>
  </symbol>

  <symbol version="1.1" id="intro-arrow-down" xmlns="http://www.w3.org/2000/svg" xmlns:xlink="http://www.w3.org/1999/xlink" x="0px" y="0px" xml:space="preserve" viewBox="0 0 490 490">
    <g>
      <g>
        <g>
          <path d="M428.75,214.562L244.997,395.515L61.25,214.562v-59.587l140.69,138.781l43.056,42.472l43.057-42.471L428.75,154.972
				V214.562 M490,240.122V8.608L244.996,250.28L0,8.608v231.514l244.996,241.27L490,240.122L490,240.122z" stroke="#fff"></path>
        </g>
      </g>
      <g></g>
      <g></g>
      <g></g>
      <g></g>
      <g></g>
      <g></g>
      <g></g>
      <g></g>
      <g></g>
      <g></g>
      <g></g>
      <g></g>
      <g></g>
      <g></g>
      <g></g>
    </g>
    <g></g>
    <g></g>
    <g></g>
    <g></g>
    <g></g>
    <g></g>
    <g></g>
    <g></g>
    <g></g>
    <g></g>
    <g></g>
    <g></g>
    <g></g>
    <g></g>
    <g></g>
  </symbol>

  <symbol xmlns="http://www.w3.org/2000/svg" viewBox="0 0 32 32" id="rate-ethereum">
    <g fill="none" fill-rule="evenodd">
      <circle cx="16" cy="16" r="16" fill="#627EEA"></circle>
      <g fill="#FFF" fill-rule="nonzero">
        <path fill-opacity=".602" d="M16.498 4v8.87l7.497 3.35z"></path>
        <path d="M16.498 4L9 16.22l7.498-3.35z"></path>
        <path fill-opacity=".602" d="M16.498 21.968v6.027L24 17.616z"></path>
        <path d="M16.498 27.995v-6.028L9 17.616z"></path>
        <path fill-opacity=".2" d="M16.498 20.573l7.497-4.353-7.497-3.348z"></path>
        <path fill-opacity=".602" d="M9 16.22l7.498 4.353v-7.701z"></path>
      </g>
    </g>
  </symbol>

  <symbol xmlns="http://www.w3.org/2000/svg" viewBox="0 0 128 128" id="rate-litecoin-icon">
    <circle cx="64" cy="64" r="60" fill="#fff"></circle>
    <path fill="#71c2ff" d="M82.7,87.5H53.33l6.54-20.98l10.99-3.66c1.57-0.52,2.42-2.22,1.9-3.79c-0.52-1.57-2.22-2.42-3.79-1.9l-6.9,2.3 l8.74-28.07c0.49-1.58-0.39-3.26-1.97-3.76c-1.59-0.49-3.26,0.39-3.76,1.97L55.05,61.8l-9.7,3.23c-1.57,0.52-2.42,2.22-1.9,3.79 c0.42,1.26,1.59,2.05,2.85,2.05c0.31,0,0.63-0.05,0.95-0.15l5.6-1.87l-6.46,20.75c-0.28,0.91-0.12,1.9,0.45,2.67 c0.57,0.77,1.46,1.22,2.42,1.22H82.7c1.66,0,3-1.34,3-3S84.35,87.5,82.7,87.5z"></path>
    <path fill="#444b54" d="M64,127C29.26,127,1,98.74,1,64S29.26,1,64,1s63,28.26,63,63S98.74,127,64,127z M64,7C32.57,7,7,32.57,7,64 s25.57,57,57,57s57-25.57,57-57S95.43,7,64,7z"></path>
  </symbol>

  <symbol fill="none" xmlns="http://www.w3.org/2000/svg" viewBox="0 0 26 22" id="events-done-icon">
    <path d="M10.2053 21.6443C10.0058 21.6443 9.80823 21.605 9.6239 21.5286C9.43958 21.4522 9.27214 21.3403 9.1311 21.1991L0.926514 12.9946C0.641608 12.7097 0.481567 12.3232 0.481567 11.9203C0.481567 11.5174 0.641608 11.131 0.926514 10.8461C1.21142 10.5612 1.59788 10.4011 2.00079 10.4011C2.40371 10.4011 2.79011 10.5612 3.07501 10.8461L10.0273 17.7984L22.3505 0.993931C22.5888 0.668965 22.9464 0.451992 23.3447 0.390721C23.743 0.329449 24.1494 0.428896 24.4744 0.66721C24.7993 0.905524 25.0162 1.26317 25.0775 1.66147C25.1388 2.05977 25.0393 2.46611 24.801 2.79108L11.4307 21.0235C11.3011 21.2001 11.1347 21.3467 10.9432 21.4531C10.7517 21.5595 10.5395 21.6233 10.321 21.6401C10.2825 21.6431 10.2436 21.6443 10.2053 21.6443Z" fill="#0098AC"></path>
  </symbol>

  <symbol fill="none" xmlns="http://www.w3.org/2000/svg" viewBox="0 0 16 19" id="events-arrow-icon">
    <path d="M16 9.5L0.249999 18.5933L0.25 0.406733L16 9.5Z" fill="#E6E6E6"></path>
  </symbol>

  <symbol fill="none" xmlns="http://www.w3.org/2000/svg" viewBox="0 0 20 20" id="events-vector-icon">
    <path d="M18.4811 19.4124C18.2816 19.4126 18.0839 19.3734 17.8996 19.297C17.7152 19.2206 17.5478 19.1085 17.4069 18.9672L1.21376 2.77411C1.07269 2.63304 0.960777 2.46557 0.88443 2.28125C0.808083 2.09693 0.768799 1.89936 0.768799 1.69986C0.768799 1.50035 0.808083 1.30282 0.88443 1.1185C0.960777 0.934181 1.07269 0.766712 1.21376 0.625641C1.35483 0.48457 1.5223 0.372642 1.70662 0.296295C1.89094 0.219948 2.08849 0.180664 2.28799 0.180664C2.4875 0.180664 2.68505 0.219948 2.86937 0.296295C3.05369 0.372642 3.22117 0.48457 3.36224 0.625641L19.5553 16.8188C19.7678 17.0313 19.9124 17.302 19.9711 17.5967C20.0297 17.8914 19.9996 18.1968 19.8846 18.4744C19.7696 18.752 19.5749 18.9893 19.3251 19.1562C19.0753 19.3232 18.7816 19.4124 18.4811 19.4124V19.4124Z" fill="#0098AC"></path>
  </symbol>

  <symbol fill="none" xmlns="http://www.w3.org/2000/svg" viewBox="0 0 18 34" id="slider-arrow-icon">
    <path d="M17 1L1 17L17 33" stroke="black" stroke-width="1.7" stroke-linecap="round" stroke-linejoin="round"></path>
  </symbol>

  <symbol fill="none" xmlns="http://www.w3.org/2000/svg" viewBox="0 0 50 50" id="contacts-email-icon">
    <path d="M48.2141 7.14289H1.78564L24.9999 26.2643L48.4767 7.19646C48.3908 7.17135 48.303 7.15345 48.2141 7.14289Z" fill="white"></path>
    <path d="M26.1267 29.9571C25.4688 30.4958 24.5222 30.4958 23.8643 29.9571L0 10.2964V41.0714C0 42.0576 0.79949 42.8571 1.78575 42.8571H48.2143C49.2005 42.8571 50 42.0576 50 41.0714V10.5607L26.1267 29.9571Z" fill="white"></path>
  </symbol>

  <symbol fill="none" xmlns="http://www.w3.org/2000/svg" viewBox="0 0 50 50" id="contacts-phone-icon">
    <path d="M35.5185 0H14.4814C12.468 0 10.8428 1.63253 10.8428 3.64223V46.3614C10.8428 48.3693 12.468 50 14.4814 50H35.5185C37.5281 50 39.157 48.3693 39.157 46.3614V3.64223C39.157 1.63253 37.5281 0 35.5185 0ZM19.809 2.21194H30.1945C30.4569 2.21194 30.67 2.60367 30.67 3.08833C30.67 3.57299 30.4569 3.96655 30.1945 3.96655H19.809C19.5448 3.96655 19.3352 3.57299 19.3352 3.08833C19.3352 2.60367 19.5448 2.21194 19.809 2.21194ZM25.0017 46.4051C23.7208 46.4051 22.6786 45.3629 22.6786 44.0802C22.6786 42.7975 23.7208 41.759 25.0017 41.759C26.279 41.759 27.3212 42.7975 27.3212 44.0802C27.3212 45.3629 26.279 46.4051 25.0017 46.4051ZM36.4313 38.4447H13.5703V6.14569H36.4313V38.4447Z" fill="white"></path>
  </symbol>

  <symbol fill="none" xmlns="http://www.w3.org/2000/svg" viewBox="0 0 36 50" id="contacts-place-icon">
    <path d="M32.8024 8.5622C29.7679 3.32548 24.3781 0.126162 18.3844 0.00389595C18.1286 -0.00137749 17.871 -0.00137749 17.6151 0.00389595C11.6215 0.126162 6.23168 3.32548 3.19711 8.5622C0.0953524 13.9149 0.0104894 20.3446 2.97006 25.7617L15.3688 48.4558C15.3744 48.4658 15.3799 48.4759 15.3857 48.4858C15.9312 49.434 16.9084 50 17.9999 50C19.0913 50 20.0686 49.4339 20.614 48.4858C20.6198 48.4759 20.6253 48.4658 20.6309 48.4558L33.0296 25.7617C35.989 20.3446 35.9041 13.9149 32.8024 8.5622ZM17.9997 22.6562C14.1227 22.6562 10.9685 19.502 10.9685 15.625C10.9685 11.7479 14.1227 8.59374 17.9997 8.59374C21.8768 8.59374 25.031 11.7479 25.031 15.625C25.031 19.502 21.8769 22.6562 17.9997 22.6562Z" fill="white"></path>
  </symbol>

  <symbol fill="none" xmlns="http://www.w3.org/2000/svg" viewBox="0 0 50 50" id="contacts-vk-icon">
    <g clip-path="url(#clip0_254_3536)">
      <path d="M49.5543 36.1815C49.42 35.9565 48.5887 34.1501 44.5884 30.4373C40.4006 26.5495 40.9631 27.1808 46.0072 20.4585C49.0793 16.3644 50.3075 13.8642 49.9231 12.7954C49.5575 11.7766 47.2979 12.0453 47.2979 12.0453L39.7849 12.0891C39.7849 12.0891 39.2286 12.0141 38.8129 12.261C38.4098 12.5047 38.1504 13.0673 38.1504 13.0673C38.1504 13.0673 36.9597 16.2363 35.3721 18.9302C32.0249 24.615 30.6842 24.915 30.1373 24.5619C28.8653 23.74 29.1841 21.2554 29.1841 19.4928C29.1841 13.983 30.0185 11.6859 27.5559 11.0921C26.737 10.8952 26.137 10.764 24.0462 10.7421C21.3648 10.714 19.0927 10.7515 17.8083 11.3797C16.9519 11.7984 16.2925 12.7329 16.6957 12.786C17.1926 12.8516 18.3177 13.0892 18.9146 13.9017C19.6865 14.9487 19.6584 17.3051 19.6584 17.3051C19.6584 17.3051 20.1022 23.79 18.6239 24.5963C17.6082 25.1494 16.2175 24.0212 13.2329 18.8615C11.7047 16.2206 10.5484 13.2986 10.5484 13.2986C10.5484 13.2986 10.3265 12.7548 9.92955 12.4641C9.44827 12.111 8.77322 11.9985 8.77322 11.9985L1.62894 12.0422C1.62894 12.0422 0.556989 12.0735 0.16321 12.5391C-0.186816 12.9548 0.135083 13.8111 0.135083 13.8111C0.135083 13.8111 5.72925 26.8964 12.061 33.4938C17.8708 39.5411 24.465 39.1442 24.465 39.1442H27.4527C27.4527 39.1442 28.3559 39.0442 28.8153 38.5473C29.2404 38.091 29.2247 37.2347 29.2247 37.2347C29.2247 37.2347 29.1653 33.225 31.028 32.6344C32.8625 32.0531 35.2189 36.5096 37.716 38.2254C39.6036 39.5224 41.0381 39.238 41.0381 39.238L47.7167 39.1442C47.7167 39.1442 51.2107 38.9286 49.5543 36.1815Z" fill="white"></path>
    </g>
    <defs>
      <clipPath id="clip0_254_3536">
        <rect width="50" height="50" fill="white"></rect>
      </clipPath>
    </defs>
  </symbol>

  <symbol fill="none" xmlns="http://www.w3.org/2000/svg" viewBox="0 0 50 50" id="contacts-instagram-icon">
    <g clip-path="url(#clip0_254_3555)">
      <path d="M36.4654 0H13.5345C6.07146 0 0 6.07146 0 13.5345V36.4658C0 43.9284 6.07146 49.9999 13.5345 49.9999H36.4658C43.9284 49.9999 49.9999 43.9284 49.9999 36.4658V13.5345C49.9999 6.07146 43.9284 0 36.4654 0V0ZM25 38.6714C17.4614 38.6714 11.3285 32.5385 11.3285 25C11.3285 17.4614 17.4614 11.3285 25 11.3285C32.5385 11.3285 38.6714 17.4614 38.6714 25C38.6714 32.5385 32.5385 38.6714 25 38.6714ZM38.9983 14.5527C36.7706 14.5527 34.9586 12.7407 34.9586 10.5129C34.9586 8.28512 36.7706 6.47277 38.9983 6.47277C41.2261 6.47277 43.0385 8.28512 43.0385 10.5129C43.0385 12.7407 41.2261 14.5527 38.9983 14.5527Z" fill="white"></path>
      <path d="M25 14.2597C19.0781 14.2597 14.2598 19.0777 14.2598 25C14.2598 30.9219 19.0781 35.7402 25 35.7402C30.9223 35.7402 35.7403 30.9219 35.7403 25C35.7403 19.0777 30.9223 14.2597 25 14.2597Z" fill="white"></path>
      <path d="M38.9982 9.40436C38.3871 9.40436 37.8896 9.90179 37.8896 10.5129C37.8896 11.124 38.3871 11.6215 38.9982 11.6215C39.6097 11.6215 40.1071 11.1244 40.1071 10.5129C40.1071 9.90141 39.6097 9.40436 38.9982 9.40436Z" fill="white"></path>
    </g>
    <defs>
      <clipPath id="clip0_254_3555">
        <rect width="50" height="50" fill="white"></rect>
      </clipPath>
    </defs>
  </symbol>

  <symbol fill="none" xmlns="http://www.w3.org/2000/svg" viewBox="0 0 50 50" id="contacts-facebook-icon">
    <g clip-path="url(#clip0_254_3559)">
      <path d="M33.3271 8.30208H37.8917V0.352083C37.1042 0.24375 34.3959 0 31.2417 0C24.6605 0 20.1522 4.13958 20.1522 11.7479V18.75H12.8896V27.6375H20.1522V50H29.0563V27.6396H36.0251L37.1313 18.7521H29.0542V12.6292C29.0563 10.0604 29.748 8.30208 33.3271 8.30208Z" fill="white"></path>
    </g>
    <defs>
      <clipPath id="clip0_254_3559">
        <rect width="50" height="50" fill="white"></rect>
      </clipPath>
    </defs>
  </symbol>

  <symbol fill="none" xmlns="http://www.w3.org/2000/svg" viewBox="0 0 50 42" id="contacts-twitter-icon">
    <path d="M18.6534 41.5118C16.4913 41.5118 14.2658 41.3367 12.0269 40.9858C8.08369 40.367 4.09201 38.3044 2.96248 37.6868L0 36.0671L3.20738 35.0124C6.71346 33.8596 8.84625 33.1443 11.4864 32.0243C8.84281 30.7441 6.80539 28.4412 5.82464 25.4642L5.07849 23.1991L5.69036 23.2925C5.11015 22.7077 4.652 22.1142 4.29686 21.5744C3.03382 19.656 2.3651 17.3119 2.50739 15.303L2.64777 13.3259L3.83147 13.7844C3.33212 12.8414 2.97126 11.8344 2.75916 10.7788C2.24227 8.20469 2.67485 5.46994 3.97757 3.07852L5.00868 1.18567L6.38769 2.84201C10.749 8.08109 16.2731 11.1889 22.8293 12.0987C22.5616 10.2528 22.7622 8.47133 23.4263 6.87451C24.1996 5.01523 25.5752 3.43862 27.4032 2.31482C29.4333 1.06703 31.8953 0.462407 34.3356 0.612324C36.9246 0.771397 39.2752 1.74147 41.1421 3.41955C42.0538 3.18266 42.7256 2.92974 43.6335 2.58795C44.1797 2.38234 44.7992 2.14888 45.5744 1.88185L48.4308 0.897663L46.5681 6.21762C46.6909 6.20732 46.8176 6.19854 46.95 6.19282L50.0002 6.05473L48.1974 8.51863C48.094 8.65978 48.0677 8.69983 48.031 8.75515C47.8857 8.97411 47.7049 9.24648 45.2303 12.5508C44.6108 13.3782 44.3014 14.4558 44.359 15.5857C44.5784 19.8795 44.0516 23.7644 42.7923 27.132C41.6014 30.318 39.7559 33.0516 37.3076 35.2569C34.278 37.9851 30.4148 39.8532 25.825 40.8084C23.5736 41.2768 21.1558 41.5118 18.6534 41.5118Z" fill="white"></path>
  </symbol>

</svg>