<svg width="50" height="50" viewBox="0 0 50 50" fill="none" xmlns="http://www.w3.org/2000/svg">
<g clip-path="url(#clip0_254_3555)">
<path d="M36.4654 0H13.5345C6.07146 0 0 6.07146 0 13.5345V36.4658C0 43.9284 6.07146 49.9999 13.5345 49.9999H36.4658C43.9284 49.9999 49.9999 43.9284 49.9999 36.4658V13.5345C49.9999 6.07146 43.9284 0 36.4654 0V0ZM25 38.6714C17.4614 38.6714 11.3285 32.5385 11.3285 25C11.3285 17.4614 17.4614 11.3285 25 11.3285C32.5385 11.3285 38.6714 17.4614 38.6714 25C38.6714 32.5385 32.5385 38.6714 25 38.6714ZM38.9983 14.5527C36.7706 14.5527 34.9586 12.7407 34.9586 10.5129C34.9586 8.28512 36.7706 6.47277 38.9983 6.47277C41.2261 6.47277 43.0385 8.28512 43.0385 10.5129C43.0385 12.7407 41.2261 14.5527 38.9983 14.5527Z" fill="white"/>
<path d="M25 14.2597C19.0781 14.2597 14.2598 19.0777 14.2598 25C14.2598 30.9219 19.0781 35.7402 25 35.7402C30.9223 35.7402 35.7403 30.9219 35.7403 25C35.7403 19.0777 30.9223 14.2597 25 14.2597Z" fill="white"/>
<path d="M38.9982 9.40436C38.3871 9.40436 37.8896 9.90179 37.8896 10.5129C37.8896 11.124 38.3871 11.6215 38.9982 11.6215C39.6097 11.6215 40.1071 11.1244 40.1071 10.5129C40.1071 9.90141 39.6097 9.40436 38.9982 9.40436Z" fill="white"/>
</g>
<defs>
<clipPath id="clip0_254_3555">
<rect width="50" height="50" fill="white"/>
</clipPath>
</defs>
</svg>
