<svg width="50" height="42" viewBox="0 0 50 42" fill="none" xmlns="http://www.w3.org/2000/svg">
<path d="M18.6534 41.5118C16.4913 41.5118 14.2658 41.3367 12.0269 40.9858C8.08369 40.367 4.09201 38.3044 2.96248 37.6868L0 36.0671L3.20738 35.0124C6.71346 33.8596 8.84625 33.1443 11.4864 32.0243C8.84281 30.7441 6.80539 28.4412 5.82464 25.4642L5.07849 23.1991L5.69036 23.2925C5.11015 22.7077 4.652 22.1142 4.29686 21.5744C3.03382 19.656 2.3651 17.3119 2.50739 15.303L2.64777 13.3259L3.83147 13.7844C3.33212 12.8414 2.97126 11.8344 2.75916 10.7788C2.24227 8.20469 2.67485 5.46994 3.97757 3.07852L5.00868 1.18567L6.38769 2.84201C10.749 8.08109 16.2731 11.1889 22.8293 12.0987C22.5616 10.2528 22.7622 8.47133 23.4263 6.87451C24.1996 5.01523 25.5752 3.43862 27.4032 2.31482C29.4333 1.06703 31.8953 0.462407 34.3356 0.612324C36.9246 0.771397 39.2752 1.74147 41.1421 3.41955C42.0538 3.18266 42.7256 2.92974 43.6335 2.58795C44.1797 2.38234 44.7992 2.14888 45.5744 1.88185L48.4308 0.897663L46.5681 6.21762C46.6909 6.20732 46.8176 6.19854 46.95 6.19282L50.0002 6.05473L48.1974 8.51863C48.094 8.65978 48.0677 8.69983 48.031 8.75515C47.8857 8.97411 47.7049 9.24648 45.2303 12.5508C44.6108 13.3782 44.3014 14.4558 44.359 15.5857C44.5784 19.8795 44.0516 23.7644 42.7923 27.132C41.6014 30.318 39.7559 33.0516 37.3076 35.2569C34.278 37.9851 30.4148 39.8532 25.825 40.8084C23.5736 41.2768 21.1558 41.5118 18.6534 41.5118Z" fill="white"/>
</svg>
