<svg width="20" height="20" viewBox="0 0 20 20" fill="none" xmlns="http://www.w3.org/2000/svg">
<path d="M18.4811 19.4124C18.2816 19.4126 18.0839 19.3734 17.8996 19.297C17.7152 19.2206 17.5478 19.1085 17.4069 18.9672L1.21376 2.77411C1.07269 2.63304 0.960777 2.46557 0.88443 2.28125C0.808083 2.09693 0.768799 1.89936 0.768799 1.69986C0.768799 1.50035 0.808083 1.30282 0.88443 1.1185C0.960777 0.934181 1.07269 0.766712 1.21376 0.625641C1.35483 0.48457 1.5223 0.372642 1.70662 0.296295C1.89094 0.219948 2.08849 0.180664 2.28799 0.180664C2.4875 0.180664 2.68505 0.219948 2.86937 0.296295C3.05369 0.372642 3.22117 0.48457 3.36224 0.625641L19.5553 16.8188C19.7678 17.0313 19.9124 17.302 19.9711 17.5967C20.0297 17.8914 19.9996 18.1968 19.8846 18.4744C19.7696 18.752 19.5749 18.9893 19.3251 19.1562C19.0753 19.3232 18.7816 19.4124 18.4811 19.4124V19.4124Z" fill="#0098AC"/>
</svg>
