<svg xmlns="http://www.w3.org/2000/svg"  viewBox="0 0 128 128" width="64px" height="64px"><circle cx="64" cy="64" r="60" fill="#fff"/><path fill="#71c2ff" d="M82.7,87.5H53.33l6.54-20.98l10.99-3.66c1.57-0.52,2.42-2.22,1.9-3.79c-0.52-1.57-2.22-2.42-3.79-1.9l-6.9,2.3 l8.74-28.07c0.49-1.58-0.39-3.26-1.97-3.76c-1.59-0.49-3.26,0.39-3.76,1.97L55.05,61.8l-9.7,3.23c-1.57,0.52-2.42,2.22-1.9,3.79 c0.42,1.26,1.59,2.05,2.85,2.05c0.31,0,0.63-0.05,0.95-0.15l5.6-1.87l-6.46,20.75c-0.28,0.91-0.12,1.9,0.45,2.67 c0.57,0.77,1.46,1.22,2.42,1.22H82.7c1.66,0,3-1.34,3-3S84.35,87.5,82.7,87.5z"/><path fill="#444b54" d="M64,127C29.26,127,1,98.74,1,64S29.26,1,64,1s63,28.26,63,63S98.74,127,64,127z M64,7C32.57,7,7,32.57,7,64 s25.57,57,57,57s57-25.57,57-57S95.43,7,64,7z"/></svg>